# xmcd
#
# Track frame offsets: 
#        183
#        25633
#        41308
#        67108
#        86445
#        109533
#        124620
#        144958
#
# Disc length: 2297 seconds
#
# Revision: 1
# Processed by: cddbd v1.5.1PL2 Copyright (c) Steve Scherf et al.
# Submitted via: ExactAudioCopy v0.95b3
#
DISCID=5a08f708
DTITLE=John Lee Hooker - Simply the truth
DYEAR=1969
DGENRE=Blues
TTITLE0=I Don't Wanna Go To Vietnam
TTITLE1=Mini Skirts
TTITLE2=Mean Mean Woman
TTITLE3=I Wanna Bugaloo
TTITLE4=Tantalizing With The Blues
TTITLE5=(Twist Ain't Nothin') But The Old Time Shimmy
TTITLE6=One Room Country Shack
TTITLE7=I'm Just A Drifter
EXTD=
EXTT0=
EXTT1=
EXTT2=
EXTT3=
EXTT4=
EXTT5=
EXTT6=
EXTT7=
PLAYORDER=
